<svg xmlns="http://www.w3.org/2000/svg" width="193" height="99" viewBox="0 0 193 99">
  <g id="Group_38" data-name="Group 38" transform="translate(3)">
    <rect id="Rectangle_43" data-name="Rectangle 43" width="2" height="7" rx="1" transform="translate(-3 46)" fill="#0a3068"/>
    <rect id="Rectangle_52" data-name="Rectangle 52" width="2" height="65" rx="1" transform="translate(78 17)" fill="#0a3068"/>
    <rect id="Rectangle_55" data-name="Rectangle 55" width="2" height="67" rx="1" transform="translate(85 16)" fill="#0a3068"/>
    <rect id="Rectangle_56" data-name="Rectangle 56" width="2" height="33" rx="1" transform="translate(93 33)" fill="#0a3068"/>
    <rect id="Rectangle_57" data-name="Rectangle 57" width="2" height="77" rx="1" transform="translate(100 11)" fill="#0a3068"/>
    <rect id="Rectangle_58" data-name="Rectangle 58" width="2" height="99" rx="1" transform="translate(107)" fill="#0a3068"/>
    <rect id="Rectangle_59" data-name="Rectangle 59" width="2" height="29" rx="1" transform="translate(115 35)" fill="#0a3068"/>
    <rect id="Rectangle_60" data-name="Rectangle 60" width="2" height="29" rx="1" transform="translate(122 35)" fill="#0a3068"/>
    <rect id="Rectangle_61" data-name="Rectangle 61" width="2" height="61" rx="1" transform="translate(129 19)" fill="#0a3068"/>
    <rect id="Rectangle_62" data-name="Rectangle 62" width="2" height="25" rx="1" transform="translate(137 37)" fill="#0a3068"/>
    <rect id="Rectangle_63" data-name="Rectangle 63" width="2" height="95" rx="1" transform="translate(144 2)" fill="#0a3068"/>
    <rect id="Rectangle_64" data-name="Rectangle 64" width="2" height="71" rx="1" transform="translate(151 14)" fill="#0a3068"/>
    <rect id="Rectangle_65" data-name="Rectangle 65" width="2" height="75" rx="1" transform="translate(159 12)" fill="#0a3068"/>
    <rect id="Rectangle_66" data-name="Rectangle 66" width="2" height="87" rx="1" transform="translate(166 6)" fill="#0a3068"/>
    <rect id="Rectangle_67" data-name="Rectangle 67" width="2" height="71" rx="1" transform="translate(173 14)" fill="#0a3068"/>
    <rect id="Rectangle_68" data-name="Rectangle 68" width="2" height="37" rx="1" transform="translate(181 30)" fill="#0a3068"/>
    <rect id="Rectangle_69" data-name="Rectangle 69" width="2" height="27" rx="1" transform="translate(188 36)" fill="#0a3068"/>
    <rect id="Rectangle_44" data-name="Rectangle 44" width="2" height="21" rx="1" transform="translate(4 39)" fill="#0a3068"/>
    <rect id="Rectangle_50" data-name="Rectangle 50" width="2" height="61" rx="1" transform="translate(70 19)" fill="#0a3068"/>
    <rect id="Rectangle_46" data-name="Rectangle 46" width="2" height="35" rx="1" transform="translate(26 32)" fill="#0a3068"/>
    <rect id="Rectangle_53" data-name="Rectangle 53" width="2" height="75" rx="1" transform="translate(48 12)" fill="#0a3068"/>
    <rect id="Rectangle_48" data-name="Rectangle 48" width="2" height="67" rx="1" transform="translate(19 16)" fill="#0a3068"/>
    <rect id="Rectangle_51" data-name="Rectangle 51" width="2" height="87" rx="1" transform="translate(56 6)" fill="#0a3068"/>
    <rect id="Rectangle_47" data-name="Rectangle 47" width="2" height="67" rx="1" transform="translate(34 16)" fill="#0a3068"/>
    <rect id="Rectangle_54" data-name="Rectangle 54" width="2" height="35" rx="1" transform="translate(41 32)" fill="#0a3068"/>
    <rect id="Rectangle_45" data-name="Rectangle 45" width="2" height="25" rx="1" transform="translate(12 37)" fill="#0a3068"/>
    <rect id="Rectangle_49" data-name="Rectangle 49" width="2" height="25" rx="1" transform="translate(63 37)" fill="#0a3068"/>
  </g>
</svg>
